<svg style="position: absolute; width: 0; height: 0; overflow: hidden;" version="1.1" xmlns="http://www.w3.org/2000/svg" xmlns:xlink="http://www.w3.org/1999/xlink">
<defs>
<symbol id="icon-search" viewBox="0 0 30 32">
<title>search</title>
<path class="path1" d="M20.571 14.857q0-3.304-2.348-5.652t-5.652-2.348-5.652 2.348-2.348 5.652 2.348 5.652 5.652 2.348 5.652-2.348 2.348-5.652zM29.714 29.714q0 0.929-0.679 1.607t-1.607 0.679q-0.964 0-1.607-0.679l-6.125-6.107q-3.196 2.214-7.125 2.214-2.554 0-4.884-0.991t-4.018-2.679-2.679-4.018-0.991-4.884 0.991-4.884 2.679-4.018 4.018-2.679 4.884-0.991 4.884 0.991 4.018 2.679 2.679 4.018 0.991 4.884q0 3.929-2.214 7.125l6.125 6.125q0.661 0.661 0.661 1.607z"></path>
</symbol>
<symbol id="icon-twitter" viewBox="0 0 30 32">
<title>twitter</title>
<path class="path1" d="M28.929 7.286q-1.196 1.75-2.893 2.982 0.018 0.25 0.018 0.75 0 2.321-0.679 4.634t-2.063 4.437-3.295 3.759-4.607 2.607-5.768 0.973q-4.839 0-8.857-2.589 0.625 0.071 1.393 0.071 4.018 0 7.161-2.464-1.875-0.036-3.357-1.152t-2.036-2.848q0.589 0.089 1.089 0.089 0.768 0 1.518-0.196-2-0.411-3.313-1.991t-1.313-3.67v-0.071q1.214 0.679 2.607 0.732-1.179-0.786-1.875-2.054t-0.696-2.75q0-1.571 0.786-2.911 2.161 2.661 5.259 4.259t6.634 1.777q-0.143-0.679-0.143-1.321 0-2.393 1.688-4.080t4.080-1.688q2.5 0 4.214 1.821 1.946-0.375 3.661-1.393-0.661 2.054-2.536 3.179 1.661-0.179 3.321-0.893z"></path>
</symbol>
<symbol id="icon-facebook" viewBox="0 0 19 32">
<title>facebook</title>
<path class="path1" d="M17.125 0.214v4.714h-2.804q-1.536 0-2.071 0.643t-0.536 1.929v3.375h5.232l-0.696 5.286h-4.536v13.554h-5.464v-13.554h-4.554v-5.286h4.554v-3.893q0-3.321 1.857-5.152t4.946-1.83q2.625 0 4.071 0.214z"></path>
</symbol>
<symbol id="icon-bars" viewBox="0 0 27 32">
<title>bars</title>
<path class="path1" d="M27.429 24v2.286q0 0.464-0.339 0.804t-0.804 0.339h-25.143q-0.464 0-0.804-0.339t-0.339-0.804v-2.286q0-0.464 0.339-0.804t0.804-0.339h25.143q0.464 0 0.804 0.339t0.339 0.804zM27.429 14.857v2.286q0 0.464-0.339 0.804t-0.804 0.339h-25.143q-0.464 0-0.804-0.339t-0.339-0.804v-2.286q0-0.464 0.339-0.804t0.804-0.339h25.143q0.464 0 0.804 0.339t0.339 0.804zM27.429 5.714v2.286q0 0.464-0.339 0.804t-0.804 0.339h-25.143q-0.464 0-0.804-0.339t-0.339-0.804v-2.286q0-0.464 0.339-0.804t0.804-0.339h25.143q0.464 0 0.804 0.339t0.339 0.804z"></path>
</symbol>
<symbol id="icon-linkedin" viewBox="0 0 27 32">
<title>linkedin</title>
<path class="path1" d="M6.232 11.161v17.696h-5.893v-17.696h5.893zM6.607 5.696q0.018 1.304-0.902 2.179t-2.42 0.875h-0.036q-1.464 0-2.357-0.875t-0.893-2.179q0-1.321 0.92-2.188t2.402-0.866 2.375 0.866 0.911 2.188zM27.429 18.714v10.143h-5.875v-9.464q0-1.875-0.723-2.938t-2.259-1.063q-1.125 0-1.884 0.616t-1.134 1.527q-0.196 0.536-0.196 1.446v9.875h-5.875q0.036-7.125 0.036-11.554t-0.018-5.286l-0.018-0.857h5.875v2.571h-0.036q0.357-0.571 0.732-1t1.009-0.929 1.554-0.777 2.045-0.277q3.054 0 4.911 2.027t1.857 5.938z"></path>
</symbol>
<symbol id="icon-angle-left" viewBox="0 0 12 32">
<title>angle-left</title>
<path class="path1" d="M11.196 9.714q0 0.232-0.179 0.411l-7.018 7.018 7.018 7.018q0.179 0.179 0.179 0.411t-0.179 0.411l-0.893 0.893q-0.179 0.179-0.411 0.179t-0.411-0.179l-8.321-8.321q-0.179-0.179-0.179-0.411t0.179-0.411l8.321-8.321q0.179-0.179 0.411-0.179t0.411 0.179l0.893 0.893q0.179 0.179 0.179 0.411z"></path>
</symbol>
<symbol id="icon-angle-right" viewBox="0 0 11 32">
<title>angle-right</title>
<path class="path1" d="M10.625 17.143q0 0.232-0.179 0.411l-8.321 8.321q-0.179 0.179-0.411 0.179t-0.411-0.179l-0.893-0.893q-0.179-0.179-0.179-0.411t0.179-0.411l7.018-7.018-7.018-7.018q-0.179-0.179-0.179-0.411t0.179-0.411l0.893-0.893q0.179-0.179 0.411-0.179t0.411 0.179l8.321 8.321q0.179 0.179 0.179 0.411z"></path>
</symbol>
<symbol id="icon-angle-up" viewBox="0 0 21 32">
<title>angle-up</title>
<path class="path1" d="M19.196 21.143q0 0.232-0.179 0.411l-0.893 0.893q-0.179 0.179-0.411 0.179t-0.411-0.179l-7.018-7.018-7.018 7.018q-0.179 0.179-0.411 0.179t-0.411-0.179l-0.893-0.893q-0.179-0.179-0.179-0.411t0.179-0.411l8.321-8.321q0.179-0.179 0.411-0.179t0.411 0.179l8.321 8.321q0.179 0.179 0.179 0.411z"></path>
</symbol>
<symbol id="icon-gear" viewBox="0 0 32 32">
<title>gear</title>
<path class="path1" d="M15.995 11.644c-1.178 0-2.287 0.457-3.123 1.288-0.84 0.833-1.304 1.944-1.306 3.13-0.003 1.183 0.456 2.299 1.291 3.141 0.84 0.838 1.959 1.3 3.147 1.3 1.178 0 2.288-0.458 3.122-1.288 0.837-0.836 1.301-1.948 1.304-3.131s-0.456-2.296-1.291-3.13c-0.84-0.845-1.956-1.309-3.143-1.309zM16.003 21.572c-1.473 0-2.86-0.573-3.903-1.615-1.039-1.044-1.608-2.429-1.605-3.898s0.58-2.849 1.623-3.886c1.038-1.031 2.415-1.598 3.877-1.598 1.474 0 2.86 0.576 3.9 1.623 1.036 1.036 1.606 2.418 1.603 3.887s-0.577 2.849-1.618 3.886c-1.036 1.032-2.413 1.6-3.876 1.6zM14.748 30.931h2.422c0.013-0.012 0.026-0.029 0.031-0.040l0.984-3.574c0.107-0.385 0.455-0.748 0.826-0.865l2.191-0.913c0.17-0.086 0.382-0.107 0.525-0.107 0.23 0 0.453 0.055 0.63 0.155l3.199 1.844c0.025-0.007 0.548-0.447 0.931-0.827 0.366-0.371 0.816-0.896 0.821-0.901l-1.826-3.232c-0.192-0.341-0.205-0.84-0.030-1.187l0.917-2.198c0.113-0.338 0.468-0.672 0.849-0.777l3.569-0.96 0.007-2.506-3.558-0.956c-0.378-0.107-0.737-0.449-0.86-0.814l-0.913-2.196c-0.158-0.312-0.143-0.81 0.050-1.149l1.845-3.211c-0.006-0.023-0.452-0.548-0.828-0.923-0.372-0.376-0.895-0.823-0.9-0.827l-3.23 1.821c-0.174 0.099-0.397 0.155-0.628 0.155-0.142 0-0.355-0.022-0.557-0.123l-2.2-0.916c-0.332-0.113-0.674-0.475-0.778-0.852l-0.966-3.674c-0.007-0.026-0.036-0.075-0.064-0.108h-2.348c-0.026 0.033-0.057 0.080-0.066 0.108l-0.98 3.61c-0.094 0.337-0.414 0.759-0.823 0.89l-2.193 0.92c-0.174 0.088-0.387 0.109-0.532 0.109-0.228 0-0.449-0.055-0.622-0.154l-3.203-1.84c-0.028 0.006-0.546 0.445-0.916 0.822-0.387 0.381-0.83 0.902-0.834 0.907l0.001-0.001c0.004 0 0.003 0.027 0.006 0.040l1.819 3.196c0.193 0.346 0.204 0.842 0.029 1.186l-0.923 2.201c-0.113 0.336-0.478 0.678-0.856 0.774l-3.554 0.966-0.005 2.499 3.556 0.956c0.375 0.104 0.737 0.448 0.858 0.816l0.914 2.197c0.161 0.309 0.147 0.809-0.048 1.151l-1.846 3.21c0.007 0.024 0.454 0.55 0.829 0.936 0.37 0.358 0.893 0.809 0.899 0.812l3.232-1.822c0.341-0.188 0.843-0.2 1.181-0.033l2.206 0.922c0.333 0.112 0.675 0.473 0.777 0.849l0.959 3.604c0.003 0.009 0.015 0.022 0.025 0.033zM17.224 32h-2.53c-0.492 0-0.897-0.422-1.004-0.83l-0.959-3.599c-0.012-0.036-0.083-0.111-0.123-0.127l-2.271-0.949c-0.080-0.036-0.196-0.016-0.217-0.005l-3.209 1.82c-0.366 0.21-0.923 0.158-1.243-0.122-0.020-0.017-0.551-0.474-0.954-0.867-0.412-0.423-0.868-0.957-0.887-0.98-0.286-0.339-0.333-0.861-0.115-1.243l1.847-3.21c0.017-0.034 0.020-0.135 0.004-0.174l-0.944-2.269c-0.029-0.074-0.104-0.145-0.144-0.16l-3.555-0.981c-0.426-0.118-0.762-0.54-0.782-0.982l0.004-2.551c0.025-0.472 0.366-0.892 0.795-1.004l3.555-0.964c0.042-0.014 0.114-0.084 0.131-0.121l0.952-2.269c0.031-0.072 0.026-0.176 0.007-0.214l-1.824-3.208c-0.214-0.384-0.166-0.903 0.112-1.237 0.023-0.026 0.481-0.568 0.898-0.976 0.398-0.406 0.937-0.861 0.96-0.88 0.326-0.272 0.875-0.322 1.243-0.112l3.202 1.839c0.009 0.004 0.164 0.006 0.179-0l2.268-0.951c0.072-0.033 0.147-0.125 0.162-0.172l0.979-3.609c0.104-0.373 0.484-0.892 1.007-0.892h2.531c0.52 0 0.899 0.525 1.003 0.897l0.965 3.677c0.012 0.035 0.084 0.113 0.125 0.13l2.265 0.944c0.083 0.038 0.195 0.015 0.211 0.010l3.209-1.824c0.368-0.209 0.922-0.157 1.244 0.12 0.020 0.017 0.562 0.478 0.964 0.885 0.405 0.406 0.863 0.944 0.883 0.968 0.285 0.337 0.333 0.859 0.114 1.241l-1.844 3.21c-0.017 0.034-0.022 0.137-0.006 0.177l0.941 2.264c0.030 0.073 0.106 0.145 0.149 0.159l3.556 0.981c0.427 0.119 0.762 0.54 0.782 0.983l-0.005 2.558c-0.028 0.469-0.368 0.886-0.789 1.001l-3.568 0.96c-0.037 0.013-0.113 0.084-0.131 0.124l-0.945 2.265c-0.032 0.072-0.029 0.177-0.011 0.216l1.825 3.21c0.216 0.382 0.168 0.903-0.117 1.239-0.022 0.025-0.482 0.561-0.878 0.963-0.419 0.416-0.958 0.868-0.981 0.887-0.321 0.271-0.873 0.322-1.24 0.112l-3.199-1.843c-0.009-0.004-0.165-0.009-0.18-0.002l-2.267 0.943c-0.078 0.032-0.147 0.11-0.162 0.149l-0.985 3.577c-0.112 0.403-0.518 0.818-1.006 0.818z"></path>
</symbol>
<symbol id="icon-note" viewBox="0 0 32 32">
<title>note</title>
<path class="path1" d="M27.255 7.436l-11.575 11.571-1.415 0.709-0.023-0.024-1.090-1.089 0.441-1.165 12.139-11.587 1.554 1.553-0.032 0.031zM22.348 30.371h-21.291v-28.741h21.291v5.993l-0.014 0.013-9.564 9.129c-0.059 0.056-0.103 0.121-0.13 0.196l-1.719 4.584c-0.077 0.205-0.021 0.433 0.141 0.578 0.159 0.143 0.402 0.175 0.589 0.080l4.584-2.293c0.050-0.023 0.096-0.057 0.138-0.098l5.974-5.974v16.532zM28.407 7.031l-2.292-2.292c-0.1-0.1-0.232-0.154-0.373-0.154-0.137 0-0.266 0.052-0.365 0.146l-1.972 1.882v-6.040h-23.405v30.854h23.405v-18.646l5.002-5.003c0.206-0.206 0.206-0.542 0-0.747z"></path>
<path class="path2" d="M29.753 6.551l2.247-2.247v-0.22c0-2.231-1.845-2.821-2.82-2.821h-0.218l-2.248 2.248 3.040 3.040z"></path>
</symbol>
<symbol id="icon-search-fancy" viewBox="0 0 32 32">
<title>search-fancy</title>
<path class="path1" d="M12.184 1.158c-6.121 0-11.101 4.98-11.101 11.101s4.979 11.101 11.101 11.101c6.121 0 11.101-4.98 11.101-11.101s-4.98-11.101-11.101-11.101zM12.184 24.443c-6.718 0-12.184-5.466-12.184-12.185s5.466-12.184 12.184-12.184 12.184 5.465 12.184 12.184c0 6.719-5.466 12.185-12.184 12.185z"></path>
<path class="path2" d="M3.194 12.259c0-4.956 4.033-8.99 8.99-8.99v0.8c-4.517 0-8.191 3.674-8.191 8.19h-0.799z"></path>
<path class="path3" d="M3.333 12.12h0.522c0.073-4.483 3.706-8.116 8.19-8.189v-0.522c-4.771 0.073-8.638 3.941-8.712 8.711zM4.131 12.397h-1.076v-0.138c0-5.033 4.095-9.128 9.129-9.128h0.138v1.077h-0.138c-4.44 0-8.053 3.612-8.053 8.051v0.138z"></path>
<path class="path4" d="M21.66 22.277c-0.139 0-0.277-0.053-0.383-0.159l-1.083-1.082c-0.212-0.212-0.212-0.555 0-0.767s0.554-0.211 0.766 0l1.083 1.083c0.211 0.211 0.211 0.554 0 0.765-0.106 0.106-0.244 0.159-0.383 0.159z"></path>
<path class="path5" d="M21.278 23.119l7.713 7.712c1.009-0.1 1.814-0.905 1.915-1.915l-7.713-7.712-1.915 1.915zM28.778 31.925h-0.225l-8.807-8.806 3.447-3.447 8.807 8.807v0.225c0 1.776-1.445 3.221-3.222 3.221z"></path>
</symbol>
<symbol id="icon-star" viewBox="0 0 32 32">
<title>star</title>
<path class="path1" d="M2.786 13.202l8.178 6.108-3.117 9.761 8.152-5.945 8.156 5.882-3.118-9.685 8.181-6.122h-10.106l-3.112-9.574-3.111 9.574h-10.104zM5.736 32l3.918-12.269-10.242-7.65h12.663l3.926-12.081 3.926 12.081h12.661l-10.238 7.661 3.918 12.172-10.265-7.402-10.267 7.488z"></path>
</symbol>
<symbol id="icon-icon-calendar" viewBox="0 0 32 32">
<title>icon-calendar</title>
<path class="path1" d="M29.142 30.856h-26.284c-0.945 0-1.715-0.769-1.715-1.714v-17.142h29.712v17.142c0 0.945-0.768 1.714-1.713 1.714zM29.142 2.858h-5.713v-2.286c0-0.316-0.255-0.572-0.572-0.572-0.316 0-0.572 0.256-0.572 0.572v5.144c0 0.315 0.256 0.571 0.572 0.571 0.317 0 0.572-0.255 0.572-0.571v-1.715h5.713c0.945 0 1.713 0.77 1.713 1.715v5.14h-29.712v-5.14c0-0.945 0.77-1.715 1.715-1.715h4.572v-1.142h-4.572c-1.575 0-2.857 1.283-2.857 2.858v23.426c0 1.576 1.281 2.858 2.857 2.858h26.284c1.575 0 2.857-1.281 2.857-2.858v-23.426c0-1.575-1.281-2.858-2.857-2.858z"></path>
<path class="path2" d="M9.142 6.286c0.316 0 0.572-0.255 0.572-0.571v-1.715h11.428v-1.142h-11.428v-2.286c0-0.315-0.256-0.572-0.572-0.572s-0.569 0.256-0.569 0.572v5.144c0 0.315 0.254 0.571 0.569 0.571z"></path>
<path class="path3" d="M8.8 17.829l0.686 0.915 1.373-1.030v8.571h1.141v-9.714l-0.912-0.457-2.287 1.714z"></path>
<path class="path4" d="M19.329 20.039l-1.043-0.025v-2.3h3.426v-1.142h-4.57v4.558l2.171 0.051c1.071 0 1.942 0.872 1.942 1.942 0 1.072-0.871 1.943-1.942 1.943-0.756 0-1.448-0.447-1.765-1.132l-1.038 0.476c0.501 1.093 1.603 1.799 2.803 1.799 1.702 0 3.086-1.384 3.086-3.086 0-1.7-1.384-3.084-3.070-3.084z"></path>
</symbol>
<symbol id="icon-icon-name" viewBox="0 0 32 32">
<title>icon-name</title>
<path class="path1" d="M21.152 27.661v2.17h-20.068v-28.204h20.068v9.339c-0.443-0.071-0.893-0.119-1.356-0.119-1.872 0-3.596 0.622-4.994 1.66-0.051-0.017-0.102-0.033-0.159-0.033h-9.221c-0.3 0-0.542 0.242-0.542 0.542s0.242 0.543 0.542 0.543h8.207c-0.975 1.054-1.682 2.352-2.016 3.797h-6.191c-0.3 0-0.542 0.243-0.542 0.541 0 0.301 0.242 0.544 0.542 0.544h6.007c-0.024 0.267-0.042 0.538-0.042 0.813 0 1.053 0.204 2.056 0.557 2.983h-6.523c-0.3 0-0.542 0.243-0.542 0.542 0 0.3 0.242 0.543 0.542 0.543h7.021c1.435 2.585 4.192 4.339 7.353 4.339 0.47 0 0.93-0.049 1.38-0.122-0.008 0.040-0.024 0.079-0.024 0.122zM27.117 19.255c0 4.039-3.284 7.322-7.321 7.322s-7.322-3.283-7.322-7.322c0-4.037 3.285-7.322 7.322-7.322s7.321 3.285 7.321 7.322zM31.841 30.532l-5.738-5.737c1.303-1.483 2.099-3.419 2.099-5.541 0-3.786-2.516-6.993-5.965-8.042v-10.669h-22.236v30.373h22.236v-3.255c0-0.127-0.051-0.24-0.123-0.331 1.208-0.348 2.301-0.959 3.222-1.767l5.738 5.738c0.106 0.106 0.245 0.157 0.383 0.157 0.139 0 0.277-0.051 0.384-0.157 0.213-0.213 0.213-0.556 0-0.768z"></path>
<path class="path2" d="M5.422 8.678h11.39c0.301 0 0.544-0.242 0.544-0.542 0-0.301-0.243-0.543-0.544-0.543h-11.39c-0.3 0-0.542 0.242-0.542 0.543 0 0.3 0.242 0.542 0.542 0.542z"></path>
</symbol>
<symbol id="icon-icon-map" viewBox="0 0 32 32">
<title>icon-map</title>
<path class="path1" d="M12.805 8.895c0-1.761 1.435-3.195 3.197-3.195 1.76 0 3.194 1.434 3.194 3.195s-1.434 3.196-3.194 3.196c-1.762 0-3.197-1.434-3.197-3.196zM20.259 8.895c0-2.348-1.91-4.259-4.257-4.259-2.351 0-4.26 1.912-4.26 4.259 0 2.351 1.909 4.26 4.26 4.26 2.347 0 4.257-1.909 4.257-4.26z"></path>
<path class="path2" d="M23.986 27.1l-7.985 3.725-7.988-3.725-6.111 2.821 3.356-12.469 4.163-1.386c2.705 4.868 6.13 8.948 6.172 8.998l0.409 0.482 0.405-0.482c0.041-0.050 3.462-4.136 6.163-9.002l4.171 1.39 3.358 12.469-6.113-2.821zM8.014 8.996c0-4.374 3.582-7.932 7.988-7.932 4.403 0 7.985 3.558 7.985 7.932 0 1.177-0.261 2.321-0.783 3.417-2.181 4.994-5.963 9.915-7.201 11.466-1.244-1.551-5.038-6.474-7.225-11.483-0.506-1.059-0.763-2.203-0.763-3.4zM27.622 16.623l-4.538-1.514c0.388-0.742 0.755-1.497 1.085-2.255 0.587-1.222 0.883-2.522 0.883-3.858 0-4.96-4.061-8.996-9.050-8.996-4.993 0-9.053 4.036-9.053 8.996 0 1.358 0.293 2.656 0.861 3.841 0.335 0.765 0.705 1.527 1.096 2.277l-4.526 1.509-4.098 15.218 7.732-3.568 7.988 3.727 7.987-3.727 7.73 3.568-4.096-15.218z"></path>
</symbol>
</defs>
</svg>
