<?xml version="1.0" encoding="UTF-8" standalone="no"?>
<svg
   xmlns:dc="http://purl.org/dc/elements/1.1/"
   xmlns:cc="http://creativecommons.org/ns#"
   xmlns:rdf="http://www.w3.org/1999/02/22-rdf-syntax-ns#"
   xmlns:svg="http://www.w3.org/2000/svg"
   xmlns="http://www.w3.org/2000/svg"
   version="1.1"
   id="svg5074"
   viewBox="0 0 36 36.000001"
   height="36"
   width="36">
  <defs
     id="defs5076">
    <clipPath
       id="clipPath534"
       clipPathUnits="userSpaceOnUse">
      <path
         id="path536"
         d="m 0,2874.27 1600,0 L 1600,0 0,0 0,2874.27 Z" />
    </clipPath>
    <clipPath
       id="clipPath544"
       clipPathUnits="userSpaceOnUse">
      <path
         id="path546"
         d="m 802.06,2095 9.603,0 0,-9.37 -9.603,0 0,9.37 z" />
    </clipPath>
    <clipPath
       id="clipPath558"
       clipPathUnits="userSpaceOnUse">
      <path
         id="path560"
         d="m 816.589,2095 9.603,0 0,-9.37 -9.603,0 0,9.37 z" />
    </clipPath>
    <clipPath
       id="clipPath572"
       clipPathUnits="userSpaceOnUse">
      <path
         id="path574"
         d="m 787.703,2095 9.603,0 0,-9.37 -9.603,0 0,9.37 z" />
    </clipPath>
  </defs>
  <metadata
     id="metadata5079">
    <rdf:RDF>
      <cc:Work
         rdf:about="">
        <dc:format>image/svg+xml</dc:format>
        <dc:type
           rdf:resource="http://purl.org/dc/dcmitype/StillImage" />
        <dc:title></dc:title>
      </cc:Work>
    </rdf:RDF>
  </metadata>
  <g
     transform="translate(0,-1016.3622)"
     id="layer1">
    <g
       transform="matrix(1.25,0,0,-1.25,-1475.192,3291.3172)"
       id="g542" />
    <g
       transform="matrix(1.25,0,0,-1.25,-1475.192,3291.3172)"
       id="g556" />
    <g
       transform="matrix(1.25,0,0,-1.25,-1475.192,3291.3172)"
       id="g570" />
    <g
       transform="matrix(0.59463638,0,0,0.59463638,857.12791,885.28109)"
       id="g5753">
      <path
         id="path584"
         style="fill:none;stroke:#ff7702;stroke-width:2.5;stroke-linecap:butt;stroke-linejoin:miter;stroke-miterlimit:10;stroke-dasharray:none;stroke-opacity:1"
         d="m -1405.2909,266.04133 -16.675,-15.4375 16.675,-15.315" />
      <path
         d="m -1382.1408,279.7297 -58.0412,0 0,-58.04 58.0412,0 0,58.04 z"
         style="fill:none;stroke:#ff7702;stroke-width:2.5;stroke-linecap:butt;stroke-linejoin:miter;stroke-miterlimit:10;stroke-dasharray:none;stroke-opacity:1"
         id="path586" />
    </g>
  </g>
</svg>
