<?xml version="1.0" encoding="UTF-8" standalone="no"?>
<svg
   xmlns:dc="http://purl.org/dc/elements/1.1/"
   xmlns:cc="http://creativecommons.org/ns#"
   xmlns:rdf="http://www.w3.org/1999/02/22-rdf-syntax-ns#"
   xmlns:svg="http://www.w3.org/2000/svg"
   xmlns="http://www.w3.org/2000/svg"
   version="1.1"
   id="svg5518"
   viewBox="0 0 36 36.000001"
   height="36"
   width="36">
  <defs
     id="defs5520">
    <clipPath
       id="clipPath364"
       clipPathUnits="userSpaceOnUse">
      <path
         id="path366"
         d="m 0,3337.542 1600,0 L 1600,0 0,0 0,3337.542 Z" />
    </clipPath>
    <clipPath
       id="clipPath424"
       clipPathUnits="userSpaceOnUse">
      <path
         id="path426"
         d="m 0,3337.542 1600,0 L 1600,0 0,0 0,3337.542 Z" />
    </clipPath>
  </defs>
  <metadata
     id="metadata5523">
    <rdf:RDF>
      <cc:Work
         rdf:about="">
        <dc:format>image/svg+xml</dc:format>
        <dc:type
           rdf:resource="http://purl.org/dc/dcmitype/StillImage" />
        <dc:title></dc:title>
      </cc:Work>
    </rdf:RDF>
  </metadata>
  <g
     transform="translate(0,-1016.3622)"
     id="layer1">
    <g
       transform="matrix(0.39576205,0,0,0.39576205,284.89977,1049.4602)"
       id="g6182">
      <g
         id="g428"
         transform="matrix(1.25,0,0,-1.25,-674.41017,-50.531)">
        <path
           d="m 0,0 c -2.678,0 -5.201,-1.039 -7.103,-2.93 -1.911,-1.894 -2.965,-4.422 -2.971,-7.117 -0.006,-2.691 1.037,-5.228 2.937,-7.142 1.91,-1.905 4.455,-2.956 7.156,-2.956 2.68,0 5.204,1.041 7.1,2.928 1.904,1.901 2.959,4.43 2.965,7.121 0.006,2.692 -1.037,5.221 -2.936,7.119 C 5.238,-1.055 2.701,0 0,0 m 0.019,-22.576 c -3.349,0 -6.503,1.303 -8.876,3.672 -2.362,2.375 -3.657,5.523 -3.649,8.865 0.008,3.344 1.318,6.48 3.69,8.836 2.361,2.344 5.492,3.635 8.816,3.635 3.353,0 6.504,-1.311 8.869,-3.692 2.356,-2.357 3.653,-5.498 3.645,-8.84 -0.008,-3.341 -1.313,-6.478 -3.68,-8.837 -2.356,-2.348 -5.488,-3.639 -8.815,-3.639 m -2.853,-21.283 5.508,0 c 0.029,0.027 0.058,0.066 0.07,0.091 l 2.237,8.127 c 0.244,0.875 1.035,1.702 1.878,1.967 l 4.983,2.076 c 0.386,0.196 0.869,0.243 1.193,0.243 0.524,0 1.031,-0.124 1.432,-0.352 l 7.275,-4.193 c 0.057,0.017 1.246,1.017 2.117,1.88 0.832,0.844 1.856,2.038 1.868,2.049 l -4.153,7.35 c -0.437,0.775 -0.467,1.91 -0.068,2.699 l 2.086,4.998 c 0.258,0.768 1.064,1.528 1.931,1.768 l 8.116,2.183 0.015,5.698 -8.092,2.173 c -0.859,0.243 -1.677,1.022 -1.956,1.852 l -2.077,4.994 c -0.359,0.709 -0.326,1.842 0.114,2.613 l 4.195,7.303 c -0.014,0.053 -1.028,1.246 -1.883,2.1 -0.846,0.855 -2.035,1.871 -2.047,1.881 L 14.563,11.5 c -0.395,-0.225 -0.903,-0.352 -1.428,-0.352 -0.322,0 -0.807,0.049 -1.266,0.28 l -5.002,2.084 c -0.756,0.256 -1.533,1.08 -1.769,1.937 l -2.196,8.356 c -0.015,0.058 -0.082,0.17 -0.146,0.246 l -5.34,0 c -0.06,-0.074 -0.129,-0.182 -0.15,-0.246 L -4.963,15.596 C -5.176,14.83 -5.904,13.869 -6.834,13.572 l -4.988,-2.093 c -0.395,-0.2 -0.881,-0.249 -1.209,-0.249 -0.518,0 -1.022,0.125 -1.414,0.35 l -7.283,4.184 c -0.063,-0.014 -1.241,-1.012 -2.084,-1.869 -0.881,-0.866 -1.887,-2.051 -1.897,-2.063 l 0.002,0.002 c 0.01,0 0.006,-0.061 0.014,-0.09 l 4.136,-7.267 c 0.438,-0.786 0.465,-1.914 0.067,-2.696 l -2.098,-5.006 c -0.256,-0.765 -1.088,-1.541 -1.947,-1.759 l -8.082,-2.196 -0.012,-5.683 8.086,-2.174 c 0.853,-0.236 1.676,-1.018 1.951,-1.856 l 2.078,-4.996 c 0.366,-0.703 0.334,-1.84 -0.109,-2.617 l -4.199,-7.299 c 0.015,-0.054 1.033,-1.25 1.885,-2.129 0.841,-0.814 2.031,-1.839 2.044,-1.847 l 7.35,4.144 c 0.775,0.428 1.918,0.455 2.686,0.076 l 5.017,-2.097 c 0.758,-0.254 1.535,-1.076 1.768,-1.93 l 2.181,-8.195 c 0.006,-0.02 0.034,-0.051 0.057,-0.076 m 5.629,-2.432 -5.754,0 c -1.119,0 -2.039,0.959 -2.283,1.887 l -2.18,8.185 c -0.027,0.082 -0.189,0.252 -0.279,0.289 l -5.164,2.159 c -0.182,0.082 -0.446,0.037 -0.494,0.011 l -7.297,-4.138 c -0.832,-0.477 -2.098,-0.36 -2.826,0.277 -0.045,0.039 -1.254,1.078 -2.17,1.971 -0.938,0.961 -1.973,2.177 -2.018,2.228 -0.65,0.772 -0.758,1.959 -0.262,2.826 l 4.201,7.301 c 0.038,0.078 0.045,0.307 0.008,0.395 l -2.146,5.16 c -0.067,0.168 -0.236,0.33 -0.328,0.363 l -8.084,2.231 c -0.969,0.269 -1.733,1.228 -1.778,2.234 l 0.01,5.801 c 0.057,1.074 0.832,2.029 1.809,2.283 l 8.084,2.193 c 0.095,0.033 0.259,0.19 0.297,0.276 l 2.166,5.16 c 0.07,0.164 0.058,0.4 0.015,0.486 l -4.148,7.295 c -0.486,0.873 -0.377,2.053 0.254,2.813 0.053,0.06 1.094,1.291 2.043,2.22 0.906,0.924 2.131,1.959 2.183,2.002 0.741,0.619 1.989,0.733 2.827,0.254 l 7.281,-4.183 c 0.021,-0.008 0.373,-0.014 0.408,10e-4 l 5.158,2.163 c 0.164,0.074 0.334,0.285 0.369,0.392 l 2.227,8.207 c 0.236,0.848 1.101,2.029 2.291,2.029 l 5.756,0 c 1.183,0 2.045,-1.193 2.281,-2.041 l 2.195,-8.361 c 0.028,-0.08 0.192,-0.256 0.285,-0.295 l 5.151,-2.146 c 0.189,-0.086 0.443,-0.035 0.48,-0.022 l 7.297,4.147 c 0.836,0.476 2.096,0.357 2.828,-0.274 0.045,-0.039 1.278,-1.088 2.192,-2.013 0.922,-0.924 1.963,-2.147 2.007,-2.202 0.649,-0.767 0.758,-1.953 0.26,-2.822 L 23.754,3.152 C 23.715,3.074 23.705,2.84 23.74,2.75 l 2.141,-5.148 c 0.068,-0.166 0.242,-0.329 0.338,-0.362 l 8.086,-2.23 c 0.97,-0.27 1.734,-1.229 1.779,-2.235 l -0.012,-5.816 c -0.064,-1.066 -0.836,-2.014 -1.795,-2.277 l -8.115,-2.184 c -0.084,-0.029 -0.258,-0.191 -0.297,-0.283 l -2.15,-5.151 c -0.072,-0.164 -0.067,-0.402 -0.024,-0.492 l 4.151,-7.301 c 0.492,-0.869 0.381,-2.054 -0.266,-2.818 -0.049,-0.057 -1.095,-1.275 -1.996,-2.189 -0.953,-0.946 -2.178,-1.975 -2.23,-2.018 -0.731,-0.617 -1.985,-0.732 -2.819,-0.254 l -7.275,4.192 c -0.02,0.009 -0.375,0.021 -0.41,0.005 l -5.155,-2.144 c -0.177,-0.072 -0.335,-0.25 -0.369,-0.34 l -2.24,-8.135 c -0.254,-0.916 -1.178,-1.861 -2.287,-1.861"
           style="fill:#ff7702;fill-opacity:1;fill-rule:nonzero;stroke:none"
           id="path430" />
      </g>
    </g>
  </g>
</svg>
