<?xml version="1.0" encoding="UTF-8" standalone="no"?>
<svg
   xmlns:dc="http://purl.org/dc/elements/1.1/"
   xmlns:cc="http://creativecommons.org/ns#"
   xmlns:rdf="http://www.w3.org/1999/02/22-rdf-syntax-ns#"
   xmlns:svg="http://www.w3.org/2000/svg"
   xmlns="http://www.w3.org/2000/svg"
   version="1.1"
   id="svg5518"
   viewBox="0 0 36 36.000001"
   height="36"
   width="36">
  <defs
     id="defs5520">
    <clipPath
       id="clipPath364"
       clipPathUnits="userSpaceOnUse">
      <path
         id="path366"
         d="m 0,3337.542 1600,0 L 1600,0 0,0 0,3337.542 Z" />
    </clipPath>
    <clipPath
       id="clipPath424"
       clipPathUnits="userSpaceOnUse">
      <path
         id="path426"
         d="m 0,3337.542 1600,0 L 1600,0 0,0 0,3337.542 Z" />
    </clipPath>
  </defs>
  <metadata
     id="metadata5523">
    <rdf:RDF>
      <cc:Work
         rdf:about="">
        <dc:format>image/svg+xml</dc:format>
        <dc:type
           rdf:resource="http://purl.org/dc/dcmitype/StillImage" />
        <dc:title></dc:title>
      </cc:Work>
    </rdf:RDF>
  </metadata>
  <g
     transform="translate(0,-1016.3622)"
     id="layer1">
    <g
       transform="matrix(0.40177899,0,0,0.40177899,574.42973,952.59686)"
       id="g6172">
      <g
         id="g368"
         transform="matrix(1.25,0,0,-1.25,-1353.4007,179.52763)">
        <path
           d="m 0,0 -25.928,-25.92 -3.169,-1.588 -0.051,0.053 -2.441,2.439 0.989,2.61 L -3.409,3.549 0.071,0.07 0,0 Z m -10.992,-51.375 -47.693,0 0,64.381 47.693,0 0,-13.424 -0.031,-0.029 -21.423,-20.449 c -0.132,-0.125 -0.23,-0.272 -0.292,-0.44 l -3.85,-10.269 c -0.172,-0.459 -0.048,-0.969 0.316,-1.295 0.357,-0.321 0.9,-0.393 1.32,-0.18 l 10.269,5.137 c 0.111,0.052 0.215,0.127 0.309,0.22 l 13.382,13.381 0,-37.033 z M 2.581,0.906 -2.553,6.041 c -0.223,0.223 -0.52,0.346 -0.836,0.346 -0.306,0 -0.596,-0.116 -0.818,-0.328 l -4.417,-4.215 0,13.529 -52.428,0 0,-69.115 52.428,0 0,41.767 11.205,11.207 c 0.462,0.461 0.462,1.213 0,1.674"
           style="fill:#ff7702;fill-opacity:1;fill-rule:nonzero;stroke:none"
           id="path370" />
      </g>
      <g
         id="g372"
         transform="matrix(1.25,0,0,-1.25,-1346.4067,177.04963)">
        <path
           d="m 0,0 5.034,5.033 0,0.492 c 0,4.998 -4.133,6.319 -6.318,6.319 l -0.489,0 L -6.809,6.809 0,0 Z"
           style="fill:#ff7702;fill-opacity:1;fill-rule:nonzero;stroke:none"
           id="path374" />
      </g>
    </g>
  </g>
</svg>
