<?xml version="1.0" encoding="UTF-8" standalone="no"?>
<svg
   xmlns:dc="http://purl.org/dc/elements/1.1/"
   xmlns:cc="http://creativecommons.org/ns#"
   xmlns:rdf="http://www.w3.org/1999/02/22-rdf-syntax-ns#"
   xmlns:svg="http://www.w3.org/2000/svg"
   xmlns="http://www.w3.org/2000/svg"
   version="1.1"
   id="svg5518"
   viewBox="0 0 36 36.000001"
   height="36"
   width="36">
  <defs
     id="defs5520">
    <clipPath
       id="clipPath364"
       clipPathUnits="userSpaceOnUse">
      <path
         id="path366"
         d="m 0,3337.542 1600,0 L 1600,0 0,0 0,3337.542 Z" />
    </clipPath>
    <clipPath
       id="clipPath424"
       clipPathUnits="userSpaceOnUse">
      <path
         id="path426"
         d="m 0,3337.542 1600,0 L 1600,0 0,0 0,3337.542 Z" />
    </clipPath>
  </defs>
  <metadata
     id="metadata5523">
    <rdf:RDF>
      <cc:Work
         rdf:about="">
        <dc:format>image/svg+xml</dc:format>
        <dc:type
           rdf:resource="http://purl.org/dc/dcmitype/StillImage" />
        <dc:title></dc:title>
      </cc:Work>
    </rdf:RDF>
  </metadata>
  <g
     transform="translate(0,-1016.3622)"
     id="layer1">
    <g
       transform="matrix(0.38204941,0,0,0.38204941,550.82726,1048.8589)"
       id="g6160">
      <g
         id="g376"
         transform="matrix(1.25,0,0,-1.25,-1405.8922,-81.649125)">
        <path
           d="m 0,0 c -14.42,0 -26.15,-11.732 -26.15,-26.15 0,-14.42 11.73,-26.151 26.15,-26.151 14.419,0 26.15,11.731 26.15,26.151 C 26.15,-11.732 14.419,0 0,0 m 0,-54.854 c -15.825,0 -28.702,12.877 -28.702,28.704 0,15.826 12.877,28.701 28.702,28.701 15.825,0 28.701,-12.875 28.701,-28.701 0,-15.827 -12.876,-28.704 -28.701,-28.704"
           style="fill:#ff7702;fill-opacity:1;fill-rule:nonzero;stroke:none"
           id="path378" />
      </g>
      <g
         id="g380"
         transform="matrix(1.25,0,0,-1.25,-1432.3649,-48.961125)">
        <path
           d="m 0,0 c 0,11.676 9.5,21.178 21.178,21.178 l 0,-1.885 C 10.538,19.293 1.883,10.639 1.883,0 L 0,0 Z"
           style="fill:#ff7702;fill-opacity:1;fill-rule:nonzero;stroke:none"
           id="path382" />
      </g>
      <g
         id="g384"
         transform="matrix(1.25,0,0,-1.25,-1431.9542,-49.368875)">
        <path
           d="m 0,0 1.23,0 c 0.172,10.561 8.731,19.119 19.293,19.291 l 0,1.23 C 9.284,20.348 0.175,11.238 0,0 m 1.88,-0.652 -2.535,0 0,0.326 c 0,11.857 9.647,21.504 21.505,21.504 l 0.326,0 0,-2.537 -0.326,0 C 10.39,18.641 1.88,10.133 1.88,-0.326 l 0,-0.326 z"
           style="fill:#ff7702;fill-opacity:1;fill-rule:nonzero;stroke:none"
           id="path386" />
      </g>
      <g
         id="g388"
         transform="matrix(1.25,0,0,-1.25,-1377.9881,-19.461625)">
        <path
           d="m 0,0 c -0.327,0 -0.653,0.125 -0.902,0.375 l -2.551,2.549 c -0.499,0.5 -0.499,1.308 0,1.806 0.498,0.497 1.305,0.497 1.804,0 L 0.902,2.178 C 1.4,1.68 1.4,0.873 0.902,0.375 0.652,0.125 0.327,0 0,0"
           style="fill:#ff7702;fill-opacity:1;fill-rule:nonzero;stroke:none"
           id="path390" />
      </g>
      <g
         id="g392"
         transform="matrix(1.25,0,0,-1.25,-1379.1123,-16.981125)">
        <path
           d="m 0,0 18.169,-18.168 c 2.378,0.236 4.274,2.131 4.511,4.51 L 4.511,4.51 0,0 Z m 17.667,-20.744 -0.529,0 L -3.608,0 l 8.119,8.119 20.746,-20.746 0,-0.529 c 0,-4.184 -3.405,-7.588 -7.59,-7.588"
           style="fill:#ff7702;fill-opacity:1;fill-rule:nonzero;stroke:none"
           id="path394" />
      </g>
    </g>
  </g>
</svg>
