<?xml version="1.0" encoding="UTF-8" standalone="no"?>
<svg
   xmlns:dc="http://purl.org/dc/elements/1.1/"
   xmlns:cc="http://creativecommons.org/ns#"
   xmlns:rdf="http://www.w3.org/1999/02/22-rdf-syntax-ns#"
   xmlns:svg="http://www.w3.org/2000/svg"
   xmlns="http://www.w3.org/2000/svg"
   version="1.1"
   id="svg5518"
   viewBox="0 0 36 36.000001"
   height="36"
   width="36">
  <defs
     id="defs5520">
    <clipPath
       id="clipPath364"
       clipPathUnits="userSpaceOnUse">
      <path
         id="path366"
         d="m 0,3337.542 1600,0 L 1600,0 0,0 0,3337.542 Z" />
    </clipPath>
    <clipPath
       id="clipPath424"
       clipPathUnits="userSpaceOnUse">
      <path
         id="path426"
         d="m 0,3337.542 1600,0 L 1600,0 0,0 0,3337.542 Z" />
    </clipPath>
  </defs>
  <metadata
     id="metadata5523">
    <rdf:RDF>
      <cc:Work
         rdf:about="">
        <dc:format>image/svg+xml</dc:format>
        <dc:type
           rdf:resource="http://purl.org/dc/dcmitype/StillImage" />
        <dc:title></dc:title>
      </cc:Work>
    </rdf:RDF>
  </metadata>
  <g
     transform="translate(0,-1016.3622)"
     id="layer1">
    <g
       transform="matrix(0.38616769,0,0,0.38616769,276.50545,957.3469)"
       id="g6178">
      <g
         id="g432"
         transform="matrix(1.25,0,0,-1.25,-707.90868,191.283)">
        <path
           d="m 0,0 19.06,-14.236 -7.265,-22.75 19,13.855 L 49.803,-36.84 42.537,-14.268 61.604,0 38.051,0 30.799,22.312 23.549,0 0,0 Z m 6.875,-43.811 9.131,28.594 -23.869,17.828 29.513,0 9.149,28.157 9.15,-28.157 29.508,0 -23.861,-17.855 9.131,-28.367 -23.924,17.252 -23.928,-17.452 z"
           style="fill:#ff7702;fill-opacity:1;fill-rule:nonzero;stroke:none"
           id="path434" />
      </g>
    </g>
  </g>
</svg>
